<svg width="14" height="15" viewBox="0 0 14 15" fill="none" xmlns="http://www.w3.org/2000/svg">
<path id="Vector" d="M13.6894 1.04874C13.2753 0.634631 12.6064 0.634631 12.1923 1.04874L7 6.23038L1.80774 1.03812C1.39363 0.624012 0.724687 0.624012 0.31058 1.03812C-0.103527 1.45223 -0.103527 2.12117 0.31058 2.53528L5.50284 7.72754L0.31058 12.9198C-0.103527 13.3339 -0.103527 14.0029 0.31058 14.417C0.724687 14.8311 1.39363 14.8311 1.80774 14.417L7 9.2247L12.1923 14.417C12.6064 14.8311 13.2753 14.8311 13.6894 14.417C14.1035 14.0029 14.1035 13.3339 13.6894 12.9198L8.49716 7.72754L13.6894 2.53528C14.0929 2.13179 14.0929 1.45223 13.6894 1.04874Z" fill="#9D9D9D"/>
</svg>
