<svg width="16" height="16" viewBox="0 0 16 16" fill="none" xmlns="http://www.w3.org/2000/svg">
<path d="M4.99992 9.6665C3.94659 9.6665 3.06459 10.3732 2.77525 11.3332H1.33325V12.6665H2.77525C3.06459 13.6265 3.94659 14.3332 4.99992 14.3332C6.05325 14.3332 6.93525 13.6265 7.22458 12.6665H14.6666V11.3332H7.22458C6.93525 10.3732 6.05325 9.6665 4.99992 9.6665ZM4.99992 12.9998C4.44859 12.9998 3.99992 12.5512 3.99992 11.9998C3.99992 11.4485 4.44859 10.9998 4.99992 10.9998C5.55125 10.9998 5.99992 11.4485 5.99992 11.9998C5.99992 12.5512 5.55125 12.9998 4.99992 12.9998ZM10.9999 5.6665C9.94658 5.6665 9.06458 6.37317 8.77525 7.33317H1.33325V8.6665H8.77525C9.06458 9.6265 9.94658 10.3332 10.9999 10.3332C12.0533 10.3332 12.9353 9.6265 13.2246 8.6665H14.6666V7.33317H13.2246C12.9353 6.37317 12.0533 5.6665 10.9999 5.6665ZM10.9999 8.99984C10.4486 8.99984 9.99992 8.55117 9.99992 7.99984C9.99992 7.4485 10.4486 6.99984 10.9999 6.99984C11.5513 6.99984 11.9999 7.4485 11.9999 7.99984C11.9999 8.55117 11.5513 8.99984 10.9999 8.99984Z" fill="#FF084A"/>
<path d="M8.55792 3.33317C8.26859 2.37317 7.38659 1.6665 6.33325 1.6665C5.27992 1.6665 4.39792 2.37317 4.10859 3.33317H1.33325V4.6665H4.10859C4.39792 5.6265 5.27992 6.33317 6.33325 6.33317C7.38659 6.33317 8.26859 5.6265 8.55792 4.6665H14.7499V3.33317H8.55792ZM6.33325 4.99984C5.78192 4.99984 5.33325 4.55117 5.33325 3.99984C5.33325 3.4485 5.78192 2.99984 6.33325 2.99984C6.88459 2.99984 7.33325 3.4485 7.33325 3.99984C7.33325 4.55117 6.88459 4.99984 6.33325 4.99984Z" fill="#FF084A"/>
</svg>
