<svg width="22" height="22" viewBox="0 0 22 22" fill="none" xmlns="http://www.w3.org/2000/svg">
<path d="M6.87492 13.2915C5.42659 13.2915 4.21384 14.2632 3.816 15.5832H1.83325V17.4165H3.816C4.21384 18.7365 5.42659 19.7082 6.87492 19.7082C8.32325 19.7082 9.536 18.7365 9.93383 17.4165H20.1666V15.5832H9.93383C9.536 14.2632 8.32325 13.2915 6.87492 13.2915ZM6.87492 17.8748C6.11684 17.8748 5.49992 17.2579 5.49992 16.4998C5.49992 15.7418 6.11684 15.1248 6.87492 15.1248C7.633 15.1248 8.24992 15.7418 8.24992 16.4998C8.24992 17.2579 7.633 17.8748 6.87492 17.8748ZM15.1249 7.7915C13.6766 7.7915 12.4638 8.76317 12.066 10.0832H1.83325V11.9165H12.066C12.4638 13.2365 13.6766 14.2082 15.1249 14.2082C16.5733 14.2082 17.786 13.2365 18.1838 11.9165H20.1666V10.0832H18.1838C17.786 8.76317 16.5733 7.7915 15.1249 7.7915ZM15.1249 12.3748C14.3668 12.3748 13.7499 11.7579 13.7499 10.9998C13.7499 10.2418 14.3668 9.62484 15.1249 9.62484C15.883 9.62484 16.4999 10.2418 16.4999 10.9998C16.4999 11.7579 15.883 12.3748 15.1249 12.3748Z" fill="#9D9D9D"/>
<path d="M11.7672 4.58317C11.3693 3.26317 10.1566 2.2915 8.70825 2.2915C7.25992 2.2915 6.04717 3.26317 5.64934 4.58317H1.83325V6.4165H5.64934C6.04717 7.7365 7.25992 8.70817 8.70825 8.70817C10.1566 8.70817 11.3693 7.7365 11.7672 6.4165H20.2812V4.58317H11.7672ZM8.70825 6.87484C7.95017 6.87484 7.33325 6.25792 7.33325 5.49984C7.33325 4.74175 7.95017 4.12484 8.70825 4.12484C9.46634 4.12484 10.0833 4.74175 10.0833 5.49984C10.0833 6.25792 9.46634 6.87484 8.70825 6.87484Z" fill="#9D9D9D"/>
</svg>
