<svg width="16" height="18" viewBox="0 0 16 18" fill="none" xmlns="http://www.w3.org/2000/svg">
<path d="M8 0L4.36364 2.18182L8 4.36364V2.90909C11.6036 2.90909 14.5455 5.85091 14.5455 9.45455C14.5455 13.0582 11.6036 16 8 16C4.39636 16 1.45455 13.0582 1.45455 9.45455C1.45455 7.67055 2.09673 6.13091 3.27273 4.95418L2.25018 3.93236C0.807273 5.37455 0 7.31127 0 9.45455C0 13.8509 3.60364 17.4545 8 17.4545C12.3964 17.4545 16 13.8509 16 9.45455C16 5.05818 12.3964 1.45455 8 1.45455V0ZM6.47709 4.77309L5.15927 5.40945L7 9.04582C6.94359 9.17491 6.91272 9.31371 6.90909 9.45455V9.50036L4.568 11.84L5.61455 12.8873L7.95564 10.5462H8C8.28933 10.5462 8.5668 10.4312 8.77139 10.2267C8.97597 10.0221 9.09091 9.7446 9.09091 9.45527C9.09091 8.95345 8.75709 8.53673 8.29527 8.40945L6.47709 4.77309Z" fill="#9D9D9D"/>
</svg>
